<?xml version="1.0" encoding="UTF-8"?>

<svg viewBox="0 0 326.61465 373.44644" xmlns="http://www.w3.org/2000/svg">
 <g transform="translate(-201.92 -249.7)" fill="none" stroke="#000" stroke-width="3">
  <path stroke="#fff  " transform="translate(9.4336e-6)" d="m407.41 436.42c0 102.3-18.888 185.22-42.188 185.22s-42.188-82.927-42.188-185.22 18.888-185.22 42.188-185.22 42.188 82.927 42.188 185.22z" opacity=".8"/>
  <path stroke="#fff  " transform="matrix(.5 .86603 -.86603 .5 560.57 -98.08)" d="m407.41 436.42c0 102.3-18.888 185.22-42.188 185.22s-42.188-82.927-42.188-185.22 18.888-185.22 42.188-185.22 42.188 82.927 42.188 185.22z" opacity=".8"/>
  <path stroke="#fff" transform="matrix(-.5 .86603 .86603 .5 169.88 -98.08)" d="m407.41 436.42c0 102.3-18.888 185.22-42.188 185.22s-42.188-82.927-42.188-185.22 18.888-185.22 42.188-185.22 42.188 82.927 42.188 185.22z" opacity=".8"/>
  <path stroke="#fff  " transform="translate(.40177,-2.8125)" d="m382.5 439.24c0 9.7636-7.915 17.679-17.679 17.679s-17.679-7.915-17.679-17.679 7.915-17.679 17.679-17.679 17.679 7.915 17.679 17.679z" opacity=".8" stroke-linecap="round"/>
 </g>
</svg>
